<svg id="Component_1_1" data-name="Component 1 – 1" xmlns="http://www.w3.org/2000/svg" width="103.548" height="104.832" viewBox="0 0 103.548 104.832">
  <defs>
    <style>
      .cls-1 {
        fill: none;
      }

      .cls-2 {
        fill: #f7a1b1;
      }

      .cls-3, .cls-4 {
        stroke: none;
      }

      .cls-4 {
        fill: #ffb3c0;
      }
    </style>
  </defs>
  <g id="Path_21" data-name="Path 21" class="cls-1" transform="translate(-3.226 -5.168)">
    <path class="cls-3" d="M42.859,9.275a20,20,0,0,1,24.282,0L98.914,33.547a20,20,0,0,1,6.967,21.8L93.348,95.9A20,20,0,0,1,74.239,110H35.761A20,20,0,0,1,16.652,95.9L4.119,55.345a20,20,0,0,1,6.967-21.8Z"/>
    <path class="cls-4" d="M 55.00000381469727 10.16816711425781 C 53.38051223754883 10.16816711425781 51.78262329101562 10.42720794677734 50.25071334838867 10.93807983398438 C 48.6815299987793 11.46138763427734 47.21573257446289 12.23867797851562 45.89405822753906 13.24835205078125 L 14.12138366699219 37.52053070068359 C 11.67036437988281 39.39295196533203 9.878456115722656 41.93558502197266 8.939407348632812 44.87355041503906 C 8.000350952148438 47.81151580810547 7.985328674316406 50.92207717895508 8.895965576171875 53.86896896362305 L 21.42960357666016 94.42861938476562 C 22.382568359375 97.51245880126953 24.25922393798828 100.1552200317383 26.85671234130859 102.0712432861328 C 29.45418548583984 103.9872589111328 32.53321838378906 105.0000076293945 35.76093292236328 105.0000076293945 L 74.23905944824219 105.0000076293945 C 77.46676635742188 105.0000076293945 80.54580688476562 103.9872589111328 83.14328002929688 102.0712432861328 C 85.74076843261719 100.1552200317383 87.61742401123047 97.51245880126953 88.57038879394531 94.42860412597656 L 101.1040191650391 53.86896896362305 C 102.0146560668945 50.92207717895508 101.999641418457 47.81149291992188 101.0605850219727 44.87353515625 C 100.1215515136719 41.93556976318359 98.32964324951172 39.39295196533203 95.87862396240234 37.52053070068359 L 64.10592651367188 13.24835205078125 C 62.78425979614258 12.23867797851562 61.31845855712891 11.46138763427734 59.74927520751953 10.93807983398438 C 58.21736907958984 10.42720794677734 56.61947631835938 10.16816711425781 55.00000381469727 10.16816711425781 M 55 5.168174743652344 C 59.27861785888672 5.168174743652344 63.55723190307617 6.537139892578125 67.1412353515625 9.275077819824219 L 98.91393280029297 33.54725646972656 C 105.5744934082031 38.63545989990234 108.3557662963867 47.33709716796875 105.8811340332031 55.34518814086914 L 93.34749603271484 95.90482330322266 C 90.75789642333984 104.2850036621094 83.01022338867188 110.0000076293945 74.23905944824219 110.0000076293945 L 35.76093292236328 110.0000076293945 C 26.98976898193359 110.0000076293945 19.24209594726562 104.2850036621094 16.65249633789062 95.90482330322266 L 4.118858337402344 55.34518814086914 C 1.644241333007812 47.33711242675781 4.425514221191406 38.63547515869141 11.08607482910156 33.54725646972656 L 42.85874938964844 9.275077819824219 C 46.44276809692383 6.537139892578125 50.72138595581055 5.168174743652344 55 5.168174743652344 Z"/>
  </g>
  <path id="Path_20" data-name="Path 20" class="cls-2" d="M26.05-30.4q0,.952-3.149,4.688h-.439q-.488-.2-.61-1.44a7,7,0,0,0-1.733-4.114,4.6,4.6,0,0,0-3.516-1.6,4.515,4.515,0,0,0-3.32,1.4,4.593,4.593,0,0,0-1.392,3.353,6.391,6.391,0,0,0,.884,3.036,26.851,26.851,0,0,0,4.578,5.143,23.932,23.932,0,0,1,4.744,5.608,8.848,8.848,0,0,1,1.05,3.967A9.939,9.939,0,0,1,19.373-2.7,12.964,12.964,0,0,1,10.547.61,11.535,11.535,0,0,1,3.662-1.331Q.952-3.271.952-4.492A9.564,9.564,0,0,1,2.441-7.666a10.007,10.007,0,0,1,1.709-2.49A1.284,1.284,0,0,1,5.261-9.7a3.649,3.649,0,0,1,.452,1.672q.366,3.809,1.843,5.249A5.274,5.274,0,0,0,11.4-1.343a6.422,6.422,0,0,0,4.517-1.793,5.522,5.522,0,0,0,1.929-4.159,5.471,5.471,0,0,0-.749-2.6,25.519,25.519,0,0,0-4.224-4.691A20.931,20.931,0,0,1,8.325-20.19a10.5,10.5,0,0,1-1.074-4.468,10.19,10.19,0,0,1,2.856-6.958A9.717,9.717,0,0,1,17.7-34.79a10.244,10.244,0,0,1,5.969,1.648Q26.05-31.494,26.05-30.4Z" transform="translate(20.774 58.832)"/>
  <path id="Path_19" data-name="Path 19" class="cls-2" d="M23.462-7.69Q19.067.562,13.892.562a5.343,5.343,0,0,1-4.346-1.99A8.023,8.023,0,0,1,7.91-6.689q0-3.809,2.722-11.572t2.722-10.986a3.542,3.542,0,0,0-.818-2.393,2.579,2.579,0,0,0-2.039-.952q-1.88,0-3.735,2.295A7.412,7.412,0,0,0,4.907-25.61,6.03,6.03,0,0,0,6.567-21.8a2.554,2.554,0,0,1,.684,1.147A4.28,4.28,0,0,1,6.2-19.019q-1.05,1.27-1.807,1.27a2.741,2.741,0,0,1-1.831-1.172,5.169,5.169,0,0,1-1.025-3.491,12.85,12.85,0,0,1,3.308-8.569q3.308-3.857,7.312-3.857a6.378,6.378,0,0,1,5.078,2.488,9.344,9.344,0,0,1,2.075,6.195q-.035,3.9-2.528,11.047T14.307-5.545a2.675,2.675,0,0,0,.586,1.821,1.97,1.97,0,0,0,1.563.672q2.124,0,4.224-3.467a39.428,39.428,0,0,0,3.833-9.937l2.295-8.594a61.067,61.067,0,0,1,3-8.862q.171-.415,2.281-.647t3.062-.232q.951,0,.951.389L31.627-17.362A50.132,50.132,0,0,0,29.712-6.4a4.072,4.072,0,0,0,.635,2.405,1.994,1.994,0,0,0,1.709.891q1.587,0,4.333-2.6a21.5,21.5,0,0,0,4.626-6.641,19.4,19.4,0,0,0,1.88-8.264,20.188,20.188,0,0,0-2.2-8.984,5.927,5.927,0,0,1-.61-1.611q0-1.05,2.014-2.319A6.74,6.74,0,0,1,45-34.79q.83,0,1.672,2.209a12.878,12.878,0,0,1,.842,4.626,32.116,32.116,0,0,1-3,13.147A34.984,34.984,0,0,1,37.036-3.76Q32.568.562,28.955.562A4.768,4.768,0,0,1,24.89-1.5Q23.389-3.564,23.462-7.69Z" transform="translate(34.774 75.832)"/>
</svg>
